<svg xmlns="http://www.w3.org/2000/svg" xmlns:xlink="http://www.w3.org/1999/xlink" width="500" zoomAndPan="magnify" viewBox="108 155 165 45" height="500" preserveAspectRatio="xMidYMid meet" version="1.0"><defs><g/><clipPath id="57030397d9"><path d="M 214 150 L 241 150 L 241 196 L 214 196 Z M 214 150 " clip-rule="nonzero"/></clipPath><clipPath id="71dc56e44d"><path d="M 231.878906 150.132812 L 240.375 153.722656 L 222.558594 195.863281 L 214.066406 192.273438 Z M 231.878906 150.132812 " clip-rule="nonzero"/></clipPath><clipPath id="63d9f47f82"><path d="M 0 0 L 26.480469 0 L 26.480469 46 L 0 46 Z M 0 0 " clip-rule="nonzero"/></clipPath><clipPath id="0d0468a453"><path d="M 17.878906 0.132812 L 26.375 3.722656 L 8.558594 45.863281 L 0.0664062 42.273438 Z M 17.878906 0.132812 " clip-rule="nonzero"/></clipPath><clipPath id="24d55b5ba6"><rect x="0" width="27" y="0" height="46"/></clipPath></defs><rect x="108" width="165" fill="#000000" y="155" height="45" fill-opacity="1"/><g fill="#ffffff" fill-opacity="1"><g transform="translate(105.966449, 186.277356)"><g><path d="M 7.78125 0 L 5.734375 0 L 5.734375 -15.734375 L 0.21875 -15.734375 L 0.21875 -17.53125 L 13.28125 -17.53125 L 13.28125 -15.734375 L 7.78125 -15.734375 Z M 7.78125 0 "/></g></g></g><g fill="#ffffff" fill-opacity="1"><g transform="translate(119.003489, 186.277356)"><g><path d="M 15.6875 0 L 13.65625 0 L 13.65625 -8.265625 L 4.4375 -8.265625 L 4.4375 0 L 2.40625 0 L 2.40625 -17.53125 L 4.4375 -17.53125 L 4.4375 -10.0625 L 13.65625 -10.0625 L 13.65625 -17.53125 L 15.6875 -17.53125 Z M 15.6875 0 "/></g></g></g><g fill="#ffffff" fill-opacity="1"><g transform="translate(136.622011, 186.277356)"><g><path d="M 12.15625 0 L 2.40625 0 L 2.40625 -17.53125 L 12.15625 -17.53125 L 12.15625 -15.734375 L 4.4375 -15.734375 L 4.4375 -10.0625 L 11.71875 -10.0625 L 11.71875 -8.28125 L 4.4375 -8.28125 L 4.4375 -1.796875 L 12.15625 -1.796875 Z M 12.15625 0 "/></g></g></g><g fill="#ffffff" fill-opacity="1"><g transform="translate(149.778985, 186.277356)"><g/></g></g><g fill="#ffffff" fill-opacity="1"><g transform="translate(155.667954, 186.277356)"><g><path d="M 16.109375 0 L 13.75 0 L 4.203125 -14.734375 L 4.109375 -14.734375 C 4.128906 -14.335938 4.15625 -13.890625 4.1875 -13.390625 C 4.21875 -12.890625 4.242188 -12.359375 4.265625 -11.796875 C 4.285156 -11.234375 4.296875 -10.660156 4.296875 -10.078125 L 4.296875 0 L 2.40625 0 L 2.40625 -17.53125 L 4.734375 -17.53125 L 14.265625 -2.859375 L 14.34375 -2.859375 C 14.320312 -3.140625 14.300781 -3.535156 14.28125 -4.046875 C 14.257812 -4.566406 14.238281 -5.125 14.21875 -5.71875 C 14.195312 -6.3125 14.1875 -6.863281 14.1875 -7.375 L 14.1875 -17.53125 L 16.109375 -17.53125 Z M 16.109375 0 "/></g></g></g><g fill="#ffffff" fill-opacity="1"><g transform="translate(173.670264, 186.277356)"><g><path d="M 17.609375 -8.796875 C 17.609375 -7.441406 17.4375 -6.207031 17.09375 -5.09375 C 16.75 -3.988281 16.238281 -3.039062 15.5625 -2.25 C 14.882812 -1.457031 14.046875 -0.84375 13.046875 -0.40625 C 12.046875 0.0195312 10.890625 0.234375 9.578125 0.234375 C 8.210938 0.234375 7.023438 0.0195312 6.015625 -0.40625 C 5.003906 -0.84375 4.164062 -1.457031 3.5 -2.25 C 2.832031 -3.050781 2.332031 -4.003906 2 -5.109375 C 1.664062 -6.222656 1.5 -7.457031 1.5 -8.8125 C 1.5 -10.601562 1.796875 -12.175781 2.390625 -13.53125 C 2.984375 -14.882812 3.878906 -15.9375 5.078125 -16.6875 C 6.285156 -17.4375 7.796875 -17.8125 9.609375 -17.8125 C 11.335938 -17.8125 12.796875 -17.4375 13.984375 -16.6875 C 15.171875 -15.945312 16.070312 -14.898438 16.6875 -13.546875 C 17.300781 -12.203125 17.609375 -10.617188 17.609375 -8.796875 Z M 3.640625 -8.796875 C 3.640625 -7.304688 3.851562 -6.015625 4.28125 -4.921875 C 4.707031 -3.835938 5.359375 -3 6.234375 -2.40625 C 7.109375 -1.8125 8.222656 -1.515625 9.578125 -1.515625 C 10.929688 -1.515625 12.039062 -1.8125 12.90625 -2.40625 C 13.78125 -3 14.421875 -3.835938 14.828125 -4.921875 C 15.242188 -6.015625 15.453125 -7.304688 15.453125 -8.796875 C 15.453125 -11.054688 14.976562 -12.820312 14.03125 -14.09375 C 13.082031 -15.375 11.609375 -16.015625 9.609375 -16.015625 C 8.242188 -16.015625 7.117188 -15.722656 6.234375 -15.140625 C 5.359375 -14.554688 4.707031 -13.722656 4.28125 -12.640625 C 3.851562 -11.566406 3.640625 -10.285156 3.640625 -8.796875 Z M 3.640625 -8.796875 "/></g></g></g><g fill="#ffffff" fill-opacity="1"><g transform="translate(192.284238, 186.277356)"><g><path d="M 7.140625 -17.53125 C 8.578125 -17.53125 9.765625 -17.351562 10.703125 -17 C 11.640625 -16.644531 12.335938 -16.101562 12.796875 -15.375 C 13.265625 -14.644531 13.5 -13.71875 13.5 -12.59375 C 13.5 -11.664062 13.332031 -10.890625 13 -10.265625 C 12.664062 -9.648438 12.222656 -9.148438 11.671875 -8.765625 C 11.128906 -8.378906 10.550781 -8.082031 9.9375 -7.875 L 14.75 0 L 12.375 0 L 8.078125 -7.3125 L 4.4375 -7.3125 L 4.4375 0 L 2.40625 0 L 2.40625 -17.53125 Z M 7.015625 -15.765625 L 4.4375 -15.765625 L 4.4375 -9.046875 L 7.21875 -9.046875 C 8.644531 -9.046875 9.695312 -9.335938 10.375 -9.921875 C 11.050781 -10.503906 11.390625 -11.363281 11.390625 -12.5 C 11.390625 -13.6875 11.03125 -14.523438 10.3125 -15.015625 C 9.601562 -15.515625 8.503906 -15.765625 7.015625 -15.765625 Z M 7.015625 -15.765625 "/></g></g></g><g fill="#ffffff" fill-opacity="1"><g transform="translate(206.952382, 186.277356)"><g><path d="M 16.328125 -8.9375 C 16.328125 -6.957031 15.96875 -5.304688 15.25 -3.984375 C 14.53125 -2.660156 13.488281 -1.664062 12.125 -1 C 10.757812 -0.332031 9.101562 0 7.15625 0 L 2.40625 0 L 2.40625 -17.53125 L 7.6875 -17.53125 C 9.46875 -17.53125 11 -17.203125 12.28125 -16.546875 C 13.570312 -15.898438 14.566406 -14.9375 15.265625 -13.65625 C 15.972656 -12.382812 16.328125 -10.8125 16.328125 -8.9375 Z M 14.171875 -8.859375 C 14.171875 -10.429688 13.910156 -11.726562 13.390625 -12.75 C 12.867188 -13.78125 12.101562 -14.546875 11.09375 -15.046875 C 10.082031 -15.546875 8.84375 -15.796875 7.375 -15.796875 L 4.4375 -15.796875 L 4.4375 -1.75 L 6.921875 -1.75 C 9.335938 -1.75 11.148438 -2.34375 12.359375 -3.53125 C 13.566406 -4.726562 14.171875 -6.503906 14.171875 -8.859375 Z M 14.171875 -8.859375 "/></g></g></g><g fill="#ffffff" fill-opacity="1"><g transform="translate(224.283061, 186.277356)"><g><path d="M 13.390625 0 L 11.234375 -5.5625 L 4.203125 -5.5625 L 2.0625 0 L 0 0 L 6.859375 -17.609375 L 8.6875 -17.609375 L 15.5 0 Z M 10.625 -7.375 L 8.578125 -12.90625 C 8.523438 -13.050781 8.441406 -13.285156 8.328125 -13.609375 C 8.222656 -13.941406 8.113281 -14.28125 8 -14.625 C 7.894531 -14.976562 7.804688 -15.265625 7.734375 -15.484375 C 7.648438 -15.148438 7.5625 -14.820312 7.46875 -14.5 C 7.382812 -14.175781 7.296875 -13.875 7.203125 -13.59375 C 7.117188 -13.320312 7.046875 -13.09375 6.984375 -12.90625 L 4.890625 -7.375 Z M 10.625 -7.375 "/></g></g></g><g fill="#ffffff" fill-opacity="1"><g transform="translate(239.323, 186.277356)"><g><path d="M 7.140625 -17.53125 C 8.578125 -17.53125 9.765625 -17.351562 10.703125 -17 C 11.640625 -16.644531 12.335938 -16.101562 12.796875 -15.375 C 13.265625 -14.644531 13.5 -13.71875 13.5 -12.59375 C 13.5 -11.664062 13.332031 -10.890625 13 -10.265625 C 12.664062 -9.648438 12.222656 -9.148438 11.671875 -8.765625 C 11.128906 -8.378906 10.550781 -8.082031 9.9375 -7.875 L 14.75 0 L 12.375 0 L 8.078125 -7.3125 L 4.4375 -7.3125 L 4.4375 0 L 2.40625 0 L 2.40625 -17.53125 Z M 7.015625 -15.765625 L 4.4375 -15.765625 L 4.4375 -9.046875 L 7.21875 -9.046875 C 8.644531 -9.046875 9.695312 -9.335938 10.375 -9.921875 C 11.050781 -10.503906 11.390625 -11.363281 11.390625 -12.5 C 11.390625 -13.6875 11.03125 -14.523438 10.3125 -15.015625 C 9.601562 -15.515625 8.503906 -15.765625 7.015625 -15.765625 Z M 7.015625 -15.765625 "/></g></g></g><g fill="#ffffff" fill-opacity="1"><g transform="translate(253.991144, 186.277356)"><g><path d="M 15.046875 0 L 12.625 0 L 6.3125 -8.53125 L 4.4375 -6.84375 L 4.4375 0 L 2.40625 0 L 2.40625 -17.53125 L 4.4375 -17.53125 L 4.4375 -8.796875 C 4.894531 -9.316406 5.363281 -9.832031 5.84375 -10.34375 C 6.320312 -10.863281 6.796875 -11.382812 7.265625 -11.90625 L 12.390625 -17.53125 L 14.78125 -17.53125 L 7.796875 -9.9375 Z M 15.046875 0 "/></g></g></g><g clip-path="url(#57030397d9)"><g clip-path="url(#71dc56e44d)"><g transform="matrix(1, 0, 0, 1, 214, 150)"><g clip-path="url(#24d55b5ba6)"><g clip-path="url(#63d9f47f82)"><g clip-path="url(#0d0468a453)"><path fill="#000000" d="M 17.878906 0.132812 L 26.375 3.722656 L 8.558594 45.863281 L 0.0664062 42.273438 Z M 17.878906 0.132812 " fill-opacity="1" fill-rule="nonzero"/></g></g></g></g></g></g><path stroke-linecap="butt" transform="matrix(0.295727, -0.689235, 0.689235, 0.295727, 221.25251, 191.021339)" fill="none" stroke-linejoin="miter" d="M 0.000631282 0.999237 L 41.837468 0.997488 " stroke="#ffffff" stroke-width="2" stroke-opacity="1" stroke-miterlimit="4"/><path stroke-linecap="butt" transform="matrix(0.75, 0.000000000000000232, -0.000000000000000232, 0.75, 153.07353, 190.5697)" fill="none" stroke-linejoin="miter" d="M 0.000917736 1.000816 L 91.829049 1.000816 " stroke="#ffffff" stroke-width="2" stroke-opacity="1" stroke-miterlimit="4"/></svg>